<svg xmlns="http://www.w3.org/2000/svg" xmlns:xlink="http://www.w3.org/1999/xlink" width="500" zoomAndPan="magnify" viewBox="0 0 375 374.999991" height="500" preserveAspectRatio="xMidYMid meet" version="1.0"><defs><g/><clipPath id="f23e16b295"><path d="M 62.945312 62.945312 L 314.730469 62.945312 L 314.730469 314.730469 L 62.945312 314.730469 Z M 62.945312 62.945312 " clip-rule="nonzero"/></clipPath><clipPath id="689d6fb435"><path d="M 188.839844 62.945312 C 119.3125 62.945312 62.945312 119.3125 62.945312 188.839844 C 62.945312 258.367188 119.3125 314.730469 188.839844 314.730469 C 258.367188 314.730469 314.730469 258.367188 314.730469 188.839844 C 314.730469 119.3125 258.367188 62.945312 188.839844 62.945312 " clip-rule="nonzero"/></clipPath></defs><rect x="-37.5" width="450" fill="#ffffff" y="-37.499999" height="449.999989" fill-opacity="1"/><rect x="-37.5" width="450" fill="#ffffff" y="-37.499999" height="449.999989" fill-opacity="1"/><g clip-path="url(#f23e16b295)"><g clip-path="url(#689d6fb435)"><path fill="#000000" d="M 62.945312 62.945312 L 314.730469 62.945312 L 314.730469 314.730469 L 62.945312 314.730469 Z M 62.945312 62.945312 " fill-opacity="1" fill-rule="nonzero"/></g></g><g fill="#ffffff" fill-opacity="1"><g transform="translate(128.231582, 179.946418)"><g><path d="M 10.882812 0.300781 C 6.042969 0.34375 2.613281 -1.972656 1.414062 -6.085938 L 7.113281 -7.625 C 7.625 -6.042969 8.996094 -5.140625 10.882812 -5.140625 C 12.984375 -5.140625 14.183594 -5.613281 14.183594 -6.46875 C 14.183594 -8.953125 0.855469 -7.96875 0.855469 -15.167969 C 0.855469 -19.367188 4.414062 -21.765625 10.753906 -21.765625 C 15.640625 -21.765625 19.066406 -19.453125 20.222656 -15.339844 L 14.566406 -13.796875 C 14.054688 -15.46875 12.683594 -16.410156 10.753906 -16.410156 C 8.65625 -16.410156 7.5 -15.894531 7.5 -14.996094 C 7.5 -12.8125 20.78125 -13.496094 20.78125 -6.296875 C 20.78125 -2.015625 17.222656 0.386719 10.882812 0.300781 Z M 10.882812 0.300781 "/></g></g></g><g fill="#ffffff" fill-opacity="1"><g transform="translate(150.080194, 179.946418)"><g><path d="M 12.726562 -17.480469 C 10.839844 -17.480469 9.382812 -16.539062 8.355469 -14.78125 L 8.355469 -17.136719 L 1.414062 -17.136719 L 1.414062 4.285156 L 8.355469 4.285156 L 8.355469 -2.398438 C 9.382812 -0.644531 10.839844 0.34375 12.726562 0.34375 C 17.394531 0.34375 20.050781 -2.914062 20.050781 -8.570312 C 20.050781 -14.269531 17.394531 -17.480469 12.726562 -17.480469 Z M 10.710938 -5.269531 C 9.210938 -5.269531 8.355469 -6.46875 8.355469 -8.570312 C 8.355469 -10.710938 9.210938 -11.910156 10.710938 -11.910156 C 12.296875 -11.910156 13.195312 -10.710938 13.195312 -8.570312 C 13.195312 -6.46875 12.296875 -5.269531 10.710938 -5.269531 Z M 10.710938 -5.269531 "/></g></g></g><g fill="#ffffff" fill-opacity="1"><g transform="translate(171.114834, 179.946418)"><g><path d="M 10.324219 0.34375 C 16.28125 0.34375 19.667969 -2.914062 19.667969 -8.570312 C 19.667969 -14.269531 16.28125 -17.480469 10.324219 -17.480469 C 4.371094 -17.480469 1.027344 -14.269531 1.027344 -8.570312 C 1.027344 -2.914062 4.371094 0.34375 10.324219 0.34375 Z M 10.324219 -5.269531 C 8.742188 -5.269531 7.882812 -6.46875 7.882812 -8.570312 C 7.882812 -10.710938 8.742188 -11.910156 10.324219 -11.910156 C 11.910156 -11.910156 12.8125 -10.710938 12.8125 -8.570312 C 12.8125 -6.46875 11.910156 -5.269531 10.324219 -5.269531 Z M 10.324219 -5.269531 "/></g></g></g><g fill="#ffffff" fill-opacity="1"><g transform="translate(191.763911, 179.946418)"><g><path d="M 13.28125 -17.480469 C 11.054688 -17.4375 9.339844 -16.410156 8.355469 -14.4375 L 8.355469 -17.136719 L 1.414062 -17.136719 L 1.414062 0 L 8.355469 0 L 8.355469 -7.113281 C 8.742188 -10.070312 9.597656 -11.695312 10.796875 -11.695312 C 11.996094 -11.695312 13.152344 -11.054688 13.96875 -9.941406 L 18.722656 -14.355469 C 17.566406 -16.496094 15.511719 -17.480469 13.28125 -17.480469 Z M 13.28125 -17.480469 "/></g></g></g><g fill="#ffffff" fill-opacity="1"><g transform="translate(210.827901, 179.946418)"><g><path d="M 17.824219 -5.140625 C 17.609375 -1.671875 14.566406 0.34375 9.382812 0.34375 C 4.285156 0.34375 1.414062 -2.3125 1.414062 -7.070312 L 1.414062 -20.78125 L 8.355469 -20.78125 L 8.355469 -15.894531 L 11.867188 -15.894531 L 11.867188 -10.753906 L 8.355469 -10.753906 L 8.355469 -8.355469 C 8.355469 -6.382812 9.210938 -5.269531 10.667969 -5.269531 C 11.867188 -5.269531 12.597656 -6 12.683594 -7.242188 Z M 17.824219 -5.140625 "/></g></g></g><g fill="#ffffff" fill-opacity="1"><g transform="translate(229.292118, 179.946418)"><g><path d="M 5.226562 -6.296875 C 6.683594 -5.226562 8.441406 -4.671875 10.070312 -4.671875 C 12.167969 -4.671875 13.324219 -5.011719 13.324219 -5.570312 C 13.324219 -7.457031 0.769531 -4.113281 0.769531 -11.910156 C 0.769531 -15.46875 4.027344 -17.480469 9.855469 -17.480469 C 13.324219 -17.480469 16.539062 -16.28125 18.765625 -14.183594 L 14.953125 -10.839844 C 13.453125 -11.953125 11.695312 -12.554688 10.070312 -12.554688 C 8.011719 -12.554688 6.855469 -12.167969 6.855469 -11.570312 C 6.855469 -9.941406 19.410156 -13.066406 19.410156 -5.269531 C 19.410156 -1.671875 16.109375 0.34375 10.28125 0.300781 C 7.199219 0.300781 3.984375 -0.898438 1.414062 -2.957031 Z M 5.226562 -6.296875 "/></g></g></g><g fill="#ffffff" fill-opacity="1"><g transform="translate(94.071428, 221.196415)"><g><path d="M 13.496094 -8.953125 L 20.222656 -7.882812 C 19.152344 -2.65625 15.765625 0.34375 10.796875 0.34375 C 4.628906 0.34375 1.15625 -3.683594 1.15625 -10.710938 C 1.15625 -17.78125 4.628906 -21.765625 10.796875 -21.765625 C 15.765625 -21.765625 19.152344 -18.808594 20.222656 -13.539062 L 13.496094 -12.46875 C 13.152344 -14.566406 12.167969 -15.765625 10.839844 -15.765625 C 9.039062 -15.765625 8.011719 -13.96875 8.011719 -10.710938 C 8.011719 -7.5 9.039062 -5.699219 10.839844 -5.699219 C 12.253906 -5.699219 13.195312 -6.855469 13.496094 -8.953125 Z M 13.496094 -8.953125 "/></g></g></g><g fill="#ffffff" fill-opacity="1"><g transform="translate(115.40596, 221.196415)"><g><path d="M 10.324219 0.34375 C 16.28125 0.34375 19.667969 -2.914062 19.667969 -8.570312 C 19.667969 -14.269531 16.28125 -17.480469 10.324219 -17.480469 C 4.371094 -17.480469 1.027344 -14.269531 1.027344 -8.570312 C 1.027344 -2.914062 4.371094 0.34375 10.324219 0.34375 Z M 10.324219 -5.269531 C 8.742188 -5.269531 7.882812 -6.46875 7.882812 -8.570312 C 7.882812 -10.710938 8.742188 -11.910156 10.324219 -11.910156 C 11.910156 -11.910156 12.8125 -10.710938 12.8125 -8.570312 C 12.8125 -6.46875 11.910156 -5.269531 10.324219 -5.269531 Z M 10.324219 -5.269531 "/></g></g></g><g fill="#ffffff" fill-opacity="1"><g transform="translate(136.055037, 221.196415)"><g><path d="M 24.9375 -17.480469 C 22.28125 -17.4375 20.394531 -15.980469 19.496094 -13.410156 C 18.550781 -16.023438 16.410156 -17.480469 13.367188 -17.480469 C 11.097656 -17.4375 9.382812 -16.410156 8.355469 -14.4375 L 8.355469 -17.136719 L 1.414062 -17.136719 L 1.414062 0 L 8.355469 0 L 8.355469 -8.527344 C 8.785156 -10.582031 9.683594 -11.695312 10.882812 -11.695312 C 12.296875 -11.695312 13.066406 -10.113281 13.066406 -7.285156 L 13.066406 0 L 20.050781 0 L 20.050781 -8.871094 C 20.480469 -10.667969 21.335938 -11.695312 22.410156 -11.695312 C 23.824219 -11.695312 24.636719 -10.113281 24.636719 -7.285156 L 24.636719 0 L 31.578125 0 L 31.578125 -9.726562 C 31.578125 -14.652344 29.179688 -17.480469 24.9375 -17.480469 Z M 24.9375 -17.480469 "/></g></g></g><g fill="#ffffff" fill-opacity="1"><g transform="translate(168.785114, 221.196415)"><g><path d="M 12.726562 -17.480469 C 10.839844 -17.480469 9.382812 -16.539062 8.355469 -14.78125 L 8.355469 -17.136719 L 1.414062 -17.136719 L 1.414062 4.285156 L 8.355469 4.285156 L 8.355469 -2.398438 C 9.382812 -0.644531 10.839844 0.34375 12.726562 0.34375 C 17.394531 0.34375 20.050781 -2.914062 20.050781 -8.570312 C 20.050781 -14.269531 17.394531 -17.480469 12.726562 -17.480469 Z M 10.710938 -5.269531 C 9.210938 -5.269531 8.355469 -6.46875 8.355469 -8.570312 C 8.355469 -10.710938 9.210938 -11.910156 10.710938 -11.910156 C 12.296875 -11.910156 13.195312 -10.710938 13.195312 -8.570312 C 13.195312 -6.46875 12.296875 -5.269531 10.710938 -5.269531 Z M 10.710938 -5.269531 "/></g></g></g><g fill="#ffffff" fill-opacity="1"><g transform="translate(189.819754, 221.196415)"><g><path d="M 19.667969 -17.136719 L 12.683594 -17.136719 L 12.683594 -14.78125 C 11.695312 -16.539062 10.199219 -17.480469 8.3125 -17.480469 C 3.640625 -17.480469 1.027344 -14.269531 1.027344 -8.570312 C 1.027344 -2.914062 3.640625 0.34375 8.3125 0.34375 C 10.199219 0.34375 11.695312 -0.644531 12.683594 -2.398438 L 12.683594 0 L 19.667969 0 Z M 10.324219 -5.269531 C 8.742188 -5.269531 7.882812 -6.46875 7.882812 -8.570312 C 7.882812 -10.710938 8.742188 -11.910156 10.324219 -11.910156 C 11.867188 -11.910156 12.683594 -10.710938 12.683594 -8.570312 C 12.683594 -6.46875 11.867188 -5.269531 10.324219 -5.269531 Z M 10.324219 -5.269531 "/></g></g></g><g fill="#ffffff" fill-opacity="1"><g transform="translate(210.854394, 221.196415)"><g><path d="M 13.367188 -17.480469 C 11.097656 -17.4375 9.382812 -16.410156 8.355469 -14.4375 L 8.355469 -17.136719 L 1.414062 -17.136719 L 1.414062 0 L 8.355469 0 L 8.355469 -8.527344 C 8.785156 -10.582031 9.683594 -11.695312 10.882812 -11.695312 C 12.296875 -11.695312 13.066406 -10.113281 13.066406 -7.285156 L 13.066406 0 L 20.050781 0 L 20.050781 -9.726562 C 20.050781 -14.652344 17.652344 -17.480469 13.367188 -17.480469 Z M 13.367188 -17.480469 "/></g></g></g><g fill="#ffffff" fill-opacity="1"><g transform="translate(232.017562, 221.196415)"><g><path d="M 4.882812 -18.296875 C 7.113281 -18.296875 8.398438 -19.324219 8.398438 -21.082031 C 8.398438 -22.835938 7.113281 -23.867188 4.882812 -23.867188 C 2.65625 -23.867188 1.414062 -22.835938 1.414062 -21.082031 C 1.414062 -19.324219 2.65625 -18.296875 4.882812 -18.296875 Z M 8.398438 -17.136719 L 1.414062 -17.136719 L 1.414062 0 L 8.398438 0 Z M 8.398438 -17.136719 "/></g></g></g><g fill="#ffffff" fill-opacity="1"><g transform="translate(241.785174, 221.196415)"><g><path d="M 10.324219 0.34375 C 16.28125 0.34375 19.667969 -2.914062 19.667969 -8.570312 C 19.667969 -14.269531 16.28125 -17.480469 10.324219 -17.480469 C 4.371094 -17.480469 1.027344 -14.269531 1.027344 -8.570312 C 1.027344 -2.914062 4.371094 0.34375 10.324219 0.34375 Z M 10.324219 -5.269531 C 8.742188 -5.269531 7.882812 -6.46875 7.882812 -8.570312 C 7.882812 -10.710938 8.742188 -11.910156 10.324219 -11.910156 C 11.910156 -11.910156 12.8125 -10.710938 12.8125 -8.570312 C 12.8125 -6.46875 11.910156 -5.269531 10.324219 -5.269531 Z M 10.324219 -5.269531 "/></g></g></g><g fill="#ffffff" fill-opacity="1"><g transform="translate(262.434251, 221.196415)"><g><path d="M 13.367188 -17.480469 C 11.097656 -17.4375 9.382812 -16.410156 8.355469 -14.4375 L 8.355469 -17.136719 L 1.414062 -17.136719 L 1.414062 0 L 8.355469 0 L 8.355469 -8.527344 C 8.785156 -10.582031 9.683594 -11.695312 10.882812 -11.695312 C 12.296875 -11.695312 13.066406 -10.113281 13.066406 -7.285156 L 13.066406 0 L 20.050781 0 L 20.050781 -9.726562 C 20.050781 -14.652344 17.652344 -17.480469 13.367188 -17.480469 Z M 13.367188 -17.480469 "/></g></g></g></svg>