<svg xmlns="http://www.w3.org/2000/svg" xmlns:xlink="http://www.w3.org/1999/xlink" width="500" zoomAndPan="magnify" viewBox="0 0 375 374.999991" height="500" preserveAspectRatio="xMidYMid meet" version="1.0"><defs><g/><clipPath id="d4be9f85bf"><path d="M 62.945312 62.945312 L 314.730469 62.945312 L 314.730469 314.730469 L 62.945312 314.730469 Z M 62.945312 62.945312 " clip-rule="nonzero"/></clipPath><clipPath id="709bc656d7"><path d="M 188.839844 62.945312 C 119.3125 62.945312 62.945312 119.3125 62.945312 188.839844 C 62.945312 258.367188 119.3125 314.730469 188.839844 314.730469 C 258.367188 314.730469 314.730469 258.367188 314.730469 188.839844 C 314.730469 119.3125 258.367188 62.945312 188.839844 62.945312 " clip-rule="nonzero"/></clipPath></defs><rect x="-37.5" width="450" fill="#ffffff" y="-37.499999" height="449.999989" fill-opacity="1"/><rect x="-37.5" width="450" fill="#ffffff" y="-37.499999" height="449.999989" fill-opacity="1"/><g clip-path="url(#d4be9f85bf)"><g clip-path="url(#709bc656d7)"><path fill="#000000" d="M 62.945312 62.945312 L 314.730469 62.945312 L 314.730469 314.730469 L 62.945312 314.730469 Z M 62.945312 62.945312 " fill-opacity="1" fill-rule="nonzero"/></g></g><g fill="#ffffff" fill-opacity="1"><g transform="translate(115.97377, 200.196433)"><g><path d="M 9.984375 -21.421875 L 1.414062 -21.421875 L 1.414062 0 L 9.984375 0 C 16.410156 0 20.050781 -3.855469 20.050781 -10.710938 C 20.050781 -17.566406 16.410156 -21.421875 9.984375 -21.421875 Z M 10.410156 -6 L 8.355469 -6 L 8.355469 -15.425781 L 10.410156 -15.425781 C 12.167969 -15.425781 13.195312 -13.753906 13.195312 -10.710938 C 13.195312 -7.710938 12.167969 -6 10.410156 -6 Z M 10.410156 -6 "/></g></g></g><g fill="#ffffff" fill-opacity="1"><g transform="translate(137.094092, 200.196433)"><g><path d="M 10.324219 0.34375 C 16.28125 0.34375 19.667969 -2.914062 19.667969 -8.570312 C 19.667969 -14.269531 16.28125 -17.480469 10.324219 -17.480469 C 4.371094 -17.480469 1.027344 -14.269531 1.027344 -8.570312 C 1.027344 -2.914062 4.371094 0.34375 10.324219 0.34375 Z M 10.324219 -5.269531 C 8.742188 -5.269531 7.882812 -6.46875 7.882812 -8.570312 C 7.882812 -10.710938 8.742188 -11.910156 10.324219 -11.910156 C 11.910156 -11.910156 12.8125 -10.710938 12.8125 -8.570312 C 12.8125 -6.46875 11.910156 -5.269531 10.324219 -5.269531 Z M 10.324219 -5.269531 "/></g></g></g><g fill="#ffffff" fill-opacity="1"><g transform="translate(157.743169, 200.196433)"><g><path d="M 19.539062 -6.382812 C 18.808594 -2.097656 15.511719 0.34375 10.324219 0.34375 C 4.371094 0.34375 1.027344 -2.914062 1.027344 -8.570312 C 1.027344 -14.269531 4.371094 -17.480469 10.324219 -17.480469 C 15.554688 -17.480469 18.851562 -15.082031 19.539062 -10.796875 L 12.941406 -9.683594 C 12.640625 -11.097656 11.738281 -11.910156 10.324219 -11.910156 C 8.785156 -11.910156 7.882812 -10.710938 7.882812 -8.570312 C 7.882812 -6.46875 8.785156 -5.269531 10.324219 -5.269531 C 11.738281 -5.269531 12.640625 -6.085938 12.941406 -7.5 Z M 19.539062 -6.382812 "/></g></g></g><g fill="#ffffff" fill-opacity="1"><g transform="translate(178.263728, 200.196433)"><g><path d="M 20.050781 -21.421875 L 13.066406 -21.421875 L 13.066406 -13.710938 L 8.355469 -13.710938 L 8.355469 -21.421875 L 1.414062 -21.421875 L 1.414062 0 L 8.355469 0 L 8.355469 -7.710938 L 13.066406 -7.710938 L 13.066406 0 L 20.050781 0 Z M 20.050781 -21.421875 "/></g></g></g><g fill="#ffffff" fill-opacity="1"><g transform="translate(199.683942, 200.196433)"><g><path d="M 19.796875 -17.136719 L 12.8125 -17.136719 L 12.8125 -8.65625 C 12.382812 -6.597656 11.527344 -5.484375 10.324219 -5.484375 C 8.910156 -5.484375 8.097656 -7.070312 8.097656 -9.855469 L 8.097656 -17.136719 L 1.15625 -17.136719 L 1.15625 -7.457031 C 1.15625 -2.484375 3.554688 0.34375 7.796875 0.34375 C 10.113281 0.300781 11.824219 -0.769531 12.8125 -2.742188 L 12.8125 0 L 19.796875 0 Z M 19.796875 -17.136719 "/></g></g></g><g fill="#ffffff" fill-opacity="1"><g transform="translate(220.847111, 200.196433)"><g><path d="M 12.726562 -17.480469 C 10.839844 -17.480469 9.382812 -16.539062 8.355469 -14.78125 L 8.355469 -21.421875 L 1.414062 -21.421875 L 1.414062 0 L 8.355469 0 L 8.355469 -2.398438 C 9.382812 -0.644531 10.839844 0.34375 12.726562 0.34375 C 17.394531 0.34375 20.050781 -2.914062 20.050781 -8.570312 C 20.050781 -14.269531 17.394531 -17.480469 12.726562 -17.480469 Z M 10.710938 -5.269531 C 9.210938 -5.269531 8.355469 -6.46875 8.355469 -8.570312 C 8.355469 -10.710938 9.210938 -11.910156 10.710938 -11.910156 C 12.296875 -11.910156 13.195312 -10.710938 13.195312 -8.570312 C 13.195312 -6.46875 12.296875 -5.269531 10.710938 -5.269531 Z M 10.710938 -5.269531 "/></g></g></g><g fill="#ffffff" fill-opacity="1"><g transform="translate(241.88175, 200.196433)"><g><path d="M 18.679688 -7.710938 L 18.679688 -13.710938 L 13.410156 -13.710938 L 13.410156 -18.507812 L 6.425781 -18.507812 L 6.425781 -13.710938 L 1.113281 -13.710938 L 1.113281 -7.710938 L 6.425781 -7.710938 L 6.425781 -2.957031 L 13.410156 -2.957031 L 13.410156 -7.710938 Z M 18.679688 -7.710938 "/></g></g></g></svg>