<svg xmlns="http://www.w3.org/2000/svg" xmlns:xlink="http://www.w3.org/1999/xlink" width="500" zoomAndPan="magnify" viewBox="0 0 375 374.999991" height="500" preserveAspectRatio="xMidYMid meet" version="1.0"><defs><clipPath id="4c6a12203b"><path d="M 62.945312 62.945312 L 314.730469 62.945312 L 314.730469 314.730469 L 62.945312 314.730469 Z M 62.945312 62.945312 " clip-rule="nonzero"/></clipPath><clipPath id="40bfb70c90"><path d="M 188.839844 62.945312 C 119.3125 62.945312 62.945312 119.3125 62.945312 188.839844 C 62.945312 258.367188 119.3125 314.730469 188.839844 314.730469 C 258.367188 314.730469 314.730469 258.367188 314.730469 188.839844 C 314.730469 119.3125 258.367188 62.945312 188.839844 62.945312 " clip-rule="nonzero"/></clipPath><clipPath id="55a9183107"><path d="M 112.5 112.5 L 262.5 112.5 L 262.5 262.5 L 112.5 262.5 Z M 112.5 112.5 " clip-rule="nonzero"/></clipPath></defs><g clip-path="url(#4c6a12203b)"><g clip-path="url(#40bfb70c90)"><path fill="#000000" d="M 62.945312 62.945312 L 314.730469 62.945312 L 314.730469 314.730469 L 62.945312 314.730469 Z M 62.945312 62.945312 " fill-opacity="1" fill-rule="nonzero"/></g></g><g clip-path="url(#55a9183107)"><path fill="#ffffff" d="M 187.5 112.5 C 146.175781 112.5 112.5 146.175781 112.5 187.5 C 112.5 228.824219 146.175781 262.5 187.5 262.5 C 228.824219 262.5 262.5 228.824219 262.5 187.5 C 262.5 146.175781 228.824219 112.5 187.5 112.5 Z M 187.5 251.773438 C 152.023438 251.773438 123.226562 222.976562 123.226562 187.5 C 123.226562 152.023438 152.023438 123.226562 187.5 123.226562 C 222.976562 123.226562 251.773438 152.023438 251.773438 187.5 C 251.773438 222.976562 222.976562 251.773438 187.5 251.773438 Z M 187.5 251.773438 " fill-opacity="1" fill-rule="nonzero"/></g><path fill="#ffffff" d="M 168.449219 197.324219 C 165.976562 195.675781 165.300781 192.375 166.949219 189.898438 C 168.601562 187.425781 171.898438 186.75 174.375 188.398438 L 182.101562 193.574219 L 182.101562 155.324219 C 182.101562 152.398438 184.5 150 187.425781 150 C 190.351562 150 192.75 152.398438 192.75 155.324219 L 192.75 193.5 L 200.476562 188.324219 C 202.949219 186.675781 206.25 187.351562 207.898438 189.824219 C 209.550781 192.300781 208.875 195.601562 206.398438 197.25 L 190.5 208.050781 C 190.425781 208.125 190.351562 208.125 190.273438 208.125 C 190.199219 208.199219 190.125 208.273438 190.050781 208.273438 C 189.824219 208.425781 189.601562 208.425781 189.375 208.574219 C 189.226562 208.648438 189.074219 208.726562 188.925781 208.726562 C 188.476562 208.875 188.023438 208.949219 187.574219 208.949219 C 187.125 208.949219 186.601562 208.875 186.148438 208.726562 C 186 208.648438 185.851562 208.648438 185.699219 208.574219 C 185.398438 208.425781 185.101562 208.351562 184.800781 208.125 C 184.726562 208.050781 184.648438 208.050781 184.574219 208.050781 Z M 168.449219 197.324219 " fill-opacity="1" fill-rule="nonzero"/><path fill="#ffffff" d="M 219.675781 219.675781 C 219.675781 222.601562 217.273438 225 214.351562 225 L 160.726562 225 C 157.800781 225 155.398438 222.601562 155.398438 219.675781 C 155.398438 216.75 157.800781 214.351562 160.726562 214.351562 L 214.273438 214.351562 C 217.273438 214.273438 219.675781 216.675781 219.675781 219.675781 Z M 219.675781 219.675781 " fill-opacity="1" fill-rule="nonzero"/></svg>