<svg xmlns="http://www.w3.org/2000/svg" xmlns:xlink="http://www.w3.org/1999/xlink" width="500" zoomAndPan="magnify" viewBox="0 0 375 374.999991" height="500" preserveAspectRatio="xMidYMid meet" version="1.0"><defs><clipPath id="64640e5393"><path d="M 62.945312 62.945312 L 314.730469 62.945312 L 314.730469 314.730469 L 62.945312 314.730469 Z M 62.945312 62.945312 " clip-rule="nonzero"/></clipPath><clipPath id="59c528f33a"><path d="M 188.839844 62.945312 C 119.3125 62.945312 62.945312 119.3125 62.945312 188.839844 C 62.945312 258.367188 119.3125 314.730469 188.839844 314.730469 C 258.367188 314.730469 314.730469 258.367188 314.730469 188.839844 C 314.730469 119.3125 258.367188 62.945312 188.839844 62.945312 " clip-rule="nonzero"/></clipPath><clipPath id="d8bf8fb76d"><path d="M 114 134.089844 L 263.839844 134.089844 L 263.839844 243.589844 L 114 243.589844 Z M 114 134.089844 " clip-rule="nonzero"/></clipPath></defs><g clip-path="url(#64640e5393)"><g clip-path="url(#59c528f33a)"><path fill="#e8b298" d="M 62.945312 62.945312 L 314.730469 62.945312 L 314.730469 314.730469 L 62.945312 314.730469 Z M 62.945312 62.945312 " fill-opacity="1" fill-rule="nonzero"/></g></g><g clip-path="url(#d8bf8fb76d)"><path fill="#000000" d="M 263.511719 158.886719 C 263.511719 145.214844 252.429688 134.128906 238.753906 134.128906 C 212.222656 134.128906 165.378906 134.128906 138.84375 134.128906 C 125.171875 134.128906 114.085938 145.214844 114.085938 158.886719 C 114.085938 176.304688 114.085938 201.535156 114.085938 218.949219 C 114.085938 232.625 125.171875 243.707031 138.84375 243.707031 C 165.378906 243.707031 212.222656 243.707031 238.753906 243.707031 C 252.429688 243.707031 263.511719 232.625 263.511719 218.949219 Z M 209.023438 191.816406 L 192.195312 207.503906 C 190.285156 209.289062 187.316406 209.289062 185.402344 207.503906 L 169.738281 192.898438 L 132.894531 232.503906 C 134.714844 233.300781 136.730469 233.746094 138.84375 233.746094 C 138.84375 233.746094 238.753906 233.746094 238.753906 233.746094 C 240.910156 233.746094 242.957031 233.285156 244.804688 232.457031 Z M 125.785156 151.921875 L 162.449219 186.105469 L 125.65625 225.660156 C 124.625 223.648438 124.046875 221.367188 124.046875 218.953125 C 124.046875 218.949219 124.046875 158.886719 124.046875 158.886719 C 124.046875 156.371094 124.675781 153.996094 125.785156 151.921875 Z M 251.8125 151.921875 C 252.921875 153.996094 253.550781 156.371094 253.550781 158.886719 L 253.550781 218.949219 C 253.550781 221.324219 252.992188 223.5625 252 225.554688 L 216.3125 185.019531 Z M 244.40625 145.210938 L 188.796875 197.050781 L 133.191406 145.210938 C 134.9375 144.488281 136.84375 144.089844 138.84375 144.089844 C 138.84375 144.089844 238.753906 144.089844 238.753906 144.089844 C 240.757812 144.089844 242.667969 144.488281 244.40625 145.210938 Z M 244.40625 145.210938 " fill-opacity="1" fill-rule="evenodd"/></g></svg>