<svg xmlns="http://www.w3.org/2000/svg" xmlns:xlink="http://www.w3.org/1999/xlink" width="500" zoomAndPan="magnify" viewBox="0 0 375 374.999991" height="500" preserveAspectRatio="xMidYMid meet" version="1.0"><defs><clipPath id="d2bf2c1001"><path d="M 62.945312 62.945312 L 314.730469 62.945312 L 314.730469 314.730469 L 62.945312 314.730469 Z M 62.945312 62.945312 " clip-rule="nonzero"/></clipPath><clipPath id="037010a7bf"><path d="M 188.839844 62.945312 C 119.3125 62.945312 62.945312 119.3125 62.945312 188.839844 C 62.945312 258.367188 119.3125 314.730469 188.839844 314.730469 C 258.367188 314.730469 314.730469 258.367188 314.730469 188.839844 C 314.730469 119.3125 258.367188 62.945312 188.839844 62.945312 " clip-rule="nonzero"/></clipPath><clipPath id="ff74525106"><path d="M 112.5 113.839844 L 262.5 113.839844 L 262.5 263.839844 L 112.5 263.839844 Z M 112.5 113.839844 " clip-rule="nonzero"/></clipPath></defs><g clip-path="url(#d2bf2c1001)"><g clip-path="url(#037010a7bf)"><path fill="#e8b298" d="M 62.945312 62.945312 L 314.730469 62.945312 L 314.730469 314.730469 L 62.945312 314.730469 Z M 62.945312 62.945312 " fill-opacity="1" fill-rule="nonzero"/></g></g><g clip-path="url(#ff74525106)"><path fill="#000000" d="M 187.5 113.839844 C 146.078125 113.839844 112.5 147.417969 112.5 188.839844 C 112.5 230.261719 146.078125 263.839844 187.5 263.839844 C 228.921875 263.839844 262.5 230.261719 262.5 188.839844 C 262.5 147.417969 228.921875 113.839844 187.5 113.839844 Z M 201.824219 233.042969 C 199.53125 233.488281 198.710938 232.078125 198.710938 230.863281 C 198.710938 229.371094 198.773438 224.480469 198.773438 218.402344 C 198.773438 214.167969 197.324219 211.398438 195.703125 209.996094 C 205.777344 208.871094 216.359375 205.03125 216.359375 187.585938 C 216.359375 182.628906 214.613281 178.570312 211.710938 175.398438 C 212.175781 174.25 213.726562 169.632812 211.261719 163.382812 C 211.261719 163.382812 207.472656 162.160156 198.832031 168.042969 C 195.21875 167.035156 191.347656 166.535156 187.507812 166.511719 C 183.660156 166.535156 179.789062 167.035156 176.183594 168.042969 C 167.542969 162.167969 163.746094 163.382812 163.746094 163.382812 C 161.289062 169.640625 162.839844 174.25 163.304688 175.398438 C 160.410156 178.570312 158.648438 182.628906 158.648438 187.585938 C 158.648438 204.988281 169.207031 208.878906 179.25 210.027344 C 177.960938 211.160156 176.789062 213.160156 176.378906 216.09375 C 173.796875 217.257812 167.25 219.257812 163.214844 212.320312 C 163.214844 212.320312 160.828125 207.964844 156.292969 207.640625 C 156.292969 207.640625 151.875 207.582031 155.984375 210.402344 C 155.984375 210.402344 158.949219 211.796875 161.003906 217.046875 C 161.003906 217.046875 163.65625 225.882812 176.242188 223.136719 C 176.265625 226.925781 176.300781 229.78125 176.300781 230.863281 C 176.300781 232.0625 175.476562 233.464844 173.210938 233.050781 C 155.234375 227.042969 142.273438 210.027344 142.273438 189.964844 C 142.273438 164.875 162.523438 144.550781 187.507812 144.550781 C 212.488281 144.550781 232.738281 164.882812 232.738281 189.964844 C 232.738281 210.019531 219.796875 227.027344 201.832031 233.042969 Z M 201.824219 233.042969 " fill-opacity="1" fill-rule="nonzero"/></g></svg>