<svg xmlns="http://www.w3.org/2000/svg" xmlns:xlink="http://www.w3.org/1999/xlink" width="500" zoomAndPan="magnify" viewBox="0 0 375 374.999991" height="500" preserveAspectRatio="xMidYMid meet" version="1.0"><defs><clipPath id="efdba4d1c7"><path d="M 62.945312 62.945312 L 314.730469 62.945312 L 314.730469 314.730469 L 62.945312 314.730469 Z M 62.945312 62.945312 " clip-rule="nonzero"/></clipPath><clipPath id="2d9aedb221"><path d="M 188.839844 62.945312 C 119.3125 62.945312 62.945312 119.3125 62.945312 188.839844 C 62.945312 258.367188 119.3125 314.730469 188.839844 314.730469 C 258.367188 314.730469 314.730469 258.367188 314.730469 188.839844 C 314.730469 119.3125 258.367188 62.945312 188.839844 62.945312 " clip-rule="nonzero"/></clipPath><clipPath id="3024f000e5"><path d="M 113.839844 113.839844 L 263.839844 113.839844 L 263.839844 263.839844 L 113.839844 263.839844 Z M 113.839844 113.839844 " clip-rule="nonzero"/></clipPath></defs><g clip-path="url(#efdba4d1c7)"><g clip-path="url(#2d9aedb221)"><path fill="#e8b298" d="M 62.945312 62.945312 L 314.730469 62.945312 L 314.730469 314.730469 L 62.945312 314.730469 Z M 62.945312 62.945312 " fill-opacity="1" fill-rule="nonzero"/></g></g><g clip-path="url(#3024f000e5)"><path fill="#000000" d="M 238.839844 263.839844 L 138.839844 263.839844 C 138.019531 263.839844 137.203125 263.796875 136.390625 263.714844 C 135.574219 263.636719 134.765625 263.515625 133.964844 263.355469 C 133.160156 263.195312 132.367188 262.996094 131.585938 262.757812 C 130.800781 262.519531 130.03125 262.242188 129.277344 261.929688 C 128.519531 261.617188 127.78125 261.265625 127.058594 260.878906 C 126.335938 260.492188 125.636719 260.074219 124.957031 259.617188 C 124.277344 259.164062 123.617188 258.675781 122.984375 258.15625 C 122.351562 257.636719 121.746094 257.089844 121.167969 256.507812 C 120.589844 255.929688 120.042969 255.324219 119.523438 254.691406 C 119.003906 254.058594 118.515625 253.402344 118.058594 252.722656 C 117.605469 252.042969 117.183594 251.339844 116.796875 250.621094 C 116.414062 249.898438 116.0625 249.160156 115.75 248.402344 C 115.433594 247.644531 115.160156 246.875 114.921875 246.09375 C 114.683594 245.308594 114.484375 244.515625 114.324219 243.714844 C 114.164062 242.910156 114.042969 242.101562 113.960938 241.289062 C 113.882812 240.472656 113.839844 239.65625 113.839844 238.839844 L 113.839844 138.839844 C 113.839844 138.019531 113.882812 137.203125 113.960938 136.390625 C 114.042969 135.574219 114.164062 134.765625 114.324219 133.964844 C 114.484375 133.160156 114.683594 132.367188 114.921875 131.585938 C 115.160156 130.800781 115.433594 130.03125 115.75 129.277344 C 116.0625 128.519531 116.414062 127.78125 116.796875 127.058594 C 117.183594 126.335938 117.605469 125.636719 118.058594 124.957031 C 118.515625 124.277344 119.003906 123.617188 119.523438 122.984375 C 120.042969 122.351562 120.589844 121.746094 121.167969 121.167969 C 121.746094 120.589844 122.351562 120.042969 122.984375 119.523438 C 123.617188 119.003906 124.277344 118.515625 124.957031 118.058594 C 125.636719 117.605469 126.335938 117.183594 127.058594 116.796875 C 127.78125 116.414062 128.519531 116.0625 129.277344 115.75 C 130.03125 115.433594 130.800781 115.160156 131.585938 114.921875 C 132.367188 114.683594 133.160156 114.484375 133.964844 114.324219 C 134.765625 114.164062 135.574219 114.042969 136.390625 113.960938 C 137.203125 113.882812 138.019531 113.839844 138.839844 113.839844 L 238.839844 113.839844 C 239.65625 113.839844 240.472656 113.882812 241.289062 113.960938 C 242.101562 114.042969 242.910156 114.164062 243.714844 114.324219 C 244.515625 114.484375 245.308594 114.683594 246.09375 114.921875 C 246.875 115.160156 247.644531 115.433594 248.402344 115.75 C 249.160156 116.0625 249.898438 116.414062 250.621094 116.796875 C 251.339844 117.183594 252.042969 117.605469 252.722656 118.058594 C 253.402344 118.515625 254.058594 119.003906 254.691406 119.523438 C 255.324219 120.042969 255.929688 120.589844 256.507812 121.167969 C 257.089844 121.746094 257.636719 122.351562 258.15625 122.984375 C 258.675781 123.617188 259.164062 124.277344 259.617188 124.957031 C 260.074219 125.636719 260.492188 126.335938 260.878906 127.058594 C 261.265625 127.78125 261.617188 128.519531 261.929688 129.277344 C 262.242188 130.03125 262.519531 130.800781 262.757812 131.585938 C 262.996094 132.367188 263.195312 133.160156 263.355469 133.964844 C 263.515625 134.765625 263.636719 135.574219 263.714844 136.390625 C 263.796875 137.203125 263.839844 138.019531 263.839844 138.839844 L 263.839844 238.839844 C 263.839844 239.65625 263.796875 240.472656 263.714844 241.289062 C 263.636719 242.101562 263.515625 242.910156 263.355469 243.714844 C 263.195312 244.515625 262.996094 245.308594 262.757812 246.09375 C 262.519531 246.875 262.242188 247.644531 261.929688 248.402344 C 261.617188 249.160156 261.265625 249.898438 260.878906 250.621094 C 260.492188 251.339844 260.074219 252.042969 259.617188 252.722656 C 259.164062 253.402344 258.675781 254.058594 258.15625 254.691406 C 257.636719 255.324219 257.089844 255.929688 256.507812 256.507812 C 255.929688 257.089844 255.324219 257.636719 254.691406 258.15625 C 254.058594 258.675781 253.402344 259.164062 252.722656 259.617188 C 252.042969 260.074219 251.339844 260.492188 250.621094 260.878906 C 249.898438 261.265625 249.160156 261.617188 248.402344 261.929688 C 247.644531 262.242188 246.875 262.519531 246.09375 262.757812 C 245.308594 262.996094 244.515625 263.195312 243.714844 263.355469 C 242.910156 263.515625 242.101562 263.636719 241.289062 263.714844 C 240.472656 263.796875 239.65625 263.839844 238.839844 263.839844 Z M 138.839844 130.507812 C 138.292969 130.507812 137.75 130.558594 137.214844 130.667969 C 136.675781 130.773438 136.15625 130.929688 135.648438 131.140625 C 135.144531 131.351562 134.664062 131.605469 134.210938 131.910156 C 133.753906 132.214844 133.332031 132.558594 132.945312 132.945312 C 132.558594 133.332031 132.214844 133.753906 131.910156 134.210938 C 131.605469 134.664062 131.351562 135.144531 131.140625 135.648438 C 130.929688 136.15625 130.773438 136.675781 130.667969 137.214844 C 130.558594 137.75 130.507812 138.292969 130.507812 138.839844 L 130.507812 238.839844 C 130.507812 239.386719 130.558594 239.929688 130.667969 240.464844 C 130.773438 241 130.929688 241.523438 131.140625 242.027344 C 131.351562 242.535156 131.605469 243.015625 131.910156 243.46875 C 132.214844 243.925781 132.558594 244.34375 132.945312 244.730469 C 133.332031 245.117188 133.753906 245.464844 134.210938 245.769531 C 134.664062 246.070312 135.144531 246.328125 135.648438 246.539062 C 136.15625 246.746094 136.675781 246.90625 137.214844 247.011719 C 137.75 247.121094 138.292969 247.171875 138.839844 247.171875 L 238.839844 247.171875 C 239.386719 247.171875 239.929688 247.121094 240.464844 247.011719 C 241 246.90625 241.523438 246.746094 242.027344 246.539062 C 242.535156 246.328125 243.015625 246.070312 243.46875 245.769531 C 243.925781 245.464844 244.34375 245.117188 244.730469 244.730469 C 245.117188 244.34375 245.464844 243.925781 245.769531 243.46875 C 246.070312 243.015625 246.328125 242.535156 246.539062 242.027344 C 246.746094 241.523438 246.90625 241 247.011719 240.464844 C 247.121094 239.929688 247.171875 239.386719 247.171875 238.839844 L 247.171875 138.839844 C 247.171875 138.292969 247.121094 137.75 247.011719 137.214844 C 246.90625 136.675781 246.746094 136.15625 246.539062 135.648438 C 246.328125 135.144531 246.070312 134.664062 245.769531 134.210938 C 245.464844 133.753906 245.117188 133.332031 244.730469 132.945312 C 244.34375 132.558594 243.925781 132.214844 243.46875 131.910156 C 243.015625 131.605469 242.535156 131.351562 242.027344 131.140625 C 241.523438 130.929688 241 130.773438 240.464844 130.667969 C 239.929688 130.558594 239.386719 130.507812 238.839844 130.507812 Z M 138.839844 130.507812 " fill-opacity="1" fill-rule="nonzero"/></g><path fill="#000000" d="M 155.507812 230.507812 C 154.957031 230.507812 154.417969 230.453125 153.878906 230.347656 C 153.34375 230.238281 152.824219 230.082031 152.316406 229.871094 C 151.8125 229.664062 151.332031 229.40625 150.875 229.101562 C 150.421875 228.796875 150 228.453125 149.613281 228.066406 C 149.226562 227.679688 148.882812 227.257812 148.578125 226.800781 C 148.273438 226.347656 148.015625 225.867188 147.808594 225.363281 C 147.597656 224.855469 147.441406 224.335938 147.332031 223.796875 C 147.226562 223.261719 147.171875 222.71875 147.171875 222.171875 L 147.171875 180.507812 C 147.171875 179.957031 147.226562 179.417969 147.332031 178.878906 C 147.441406 178.34375 147.597656 177.824219 147.808594 177.316406 C 148.015625 176.8125 148.273438 176.332031 148.578125 175.875 C 148.882812 175.421875 149.226562 175 149.613281 174.613281 C 150 174.226562 150.421875 173.882812 150.875 173.578125 C 151.332031 173.273438 151.8125 173.015625 152.316406 172.808594 C 152.824219 172.597656 153.34375 172.441406 153.878906 172.332031 C 154.417969 172.226562 154.957031 172.171875 155.507812 172.171875 C 156.054688 172.171875 156.59375 172.226562 157.132812 172.332031 C 157.667969 172.441406 158.1875 172.597656 158.695312 172.808594 C 159.199219 173.015625 159.679688 173.273438 160.136719 173.578125 C 160.589844 173.882812 161.011719 174.226562 161.398438 174.613281 C 161.785156 175 162.132812 175.421875 162.433594 175.875 C 162.738281 176.332031 162.996094 176.8125 163.203125 177.316406 C 163.414062 177.824219 163.574219 178.34375 163.679688 178.878906 C 163.785156 179.417969 163.839844 179.957031 163.839844 180.507812 L 163.839844 222.171875 C 163.839844 222.71875 163.785156 223.261719 163.679688 223.796875 C 163.574219 224.335938 163.414062 224.855469 163.203125 225.363281 C 162.996094 225.867188 162.738281 226.347656 162.433594 226.800781 C 162.132812 227.257812 161.785156 227.679688 161.398438 228.066406 C 161.011719 228.453125 160.589844 228.796875 160.136719 229.101562 C 159.679688 229.40625 159.199219 229.664062 158.695312 229.871094 C 158.1875 230.082031 157.667969 230.238281 157.132812 230.347656 C 156.59375 230.453125 156.054688 230.507812 155.507812 230.507812 Z M 155.507812 230.507812 " fill-opacity="1" fill-rule="nonzero"/><path fill="#000000" d="M 155.507812 163.921875 C 154.957031 163.925781 154.414062 163.871094 153.878906 163.765625 C 153.339844 163.660156 152.816406 163.503906 152.3125 163.296875 C 151.804688 163.085938 151.320312 162.832031 150.867188 162.527344 C 150.410156 162.226562 149.988281 161.882812 149.597656 161.496094 C 149.207031 161.109375 148.863281 160.6875 148.554688 160.234375 C 148.25 159.78125 147.992188 159.300781 147.777344 158.792969 C 147.566406 158.289062 147.40625 157.765625 147.296875 157.230469 C 147.1875 156.695312 147.132812 156.152344 147.132812 155.601562 C 147.128906 155.054688 147.179688 154.511719 147.285156 153.972656 C 147.390625 153.4375 147.546875 152.914062 147.753906 152.40625 C 147.960938 151.898438 148.214844 151.417969 148.515625 150.960938 C 148.820312 150.503906 149.164062 150.078125 149.546875 149.691406 C 149.933594 149.300781 150.355469 148.953125 150.808594 148.644531 C 151.261719 148.339844 151.742188 148.078125 152.246094 147.867188 C 152.75 147.65625 153.273438 147.492188 153.808594 147.382812 C 154.347656 147.273438 154.890625 147.21875 155.4375 147.214844 C 155.984375 147.210938 156.527344 147.261719 157.066406 147.363281 C 157.605469 147.46875 158.125 147.625 158.632812 147.832031 C 159.140625 148.035156 159.625 148.289062 160.082031 148.59375 C 160.539062 148.894531 160.964844 149.238281 161.351562 149.621094 C 161.742188 150.007812 162.09375 150.425781 162.398438 150.878906 C 162.707031 151.332031 162.96875 151.8125 163.179688 152.316406 C 163.394531 152.820312 163.554688 153.34375 163.667969 153.878906 C 163.777344 154.414062 163.835938 154.957031 163.839844 155.507812 L 163.839844 155.589844 C 163.839844 156.136719 163.785156 156.679688 163.679688 157.214844 C 163.574219 157.75 163.414062 158.273438 163.203125 158.777344 C 162.996094 159.285156 162.738281 159.765625 162.433594 160.21875 C 162.132812 160.675781 161.785156 161.09375 161.398438 161.480469 C 161.011719 161.867188 160.589844 162.214844 160.136719 162.519531 C 159.679688 162.820312 159.199219 163.078125 158.695312 163.289062 C 158.1875 163.496094 157.667969 163.65625 157.132812 163.761719 C 156.59375 163.871094 156.054688 163.921875 155.507812 163.921875 Z M 155.507812 163.921875 " fill-opacity="1" fill-rule="nonzero"/><path fill="#000000" d="M 188.839844 230.507812 C 188.292969 230.507812 187.75 230.453125 187.214844 230.347656 C 186.675781 230.238281 186.15625 230.082031 185.648438 229.871094 C 185.144531 229.664062 184.664062 229.40625 184.210938 229.101562 C 183.753906 228.796875 183.332031 228.453125 182.945312 228.066406 C 182.558594 227.679688 182.214844 227.257812 181.910156 226.800781 C 181.605469 226.347656 181.351562 225.867188 181.140625 225.363281 C 180.929688 224.855469 180.773438 224.335938 180.667969 223.796875 C 180.558594 223.261719 180.507812 222.71875 180.507812 222.171875 L 180.507812 180.507812 C 180.507812 179.957031 180.558594 179.417969 180.667969 178.878906 C 180.773438 178.34375 180.929688 177.824219 181.140625 177.316406 C 181.351562 176.8125 181.605469 176.332031 181.910156 175.875 C 182.214844 175.421875 182.558594 175 182.945312 174.613281 C 183.332031 174.226562 183.753906 173.882812 184.210938 173.578125 C 184.664062 173.273438 185.144531 173.015625 185.648438 172.808594 C 186.15625 172.597656 186.675781 172.441406 187.214844 172.332031 C 187.75 172.226562 188.292969 172.171875 188.839844 172.171875 C 189.386719 172.171875 189.929688 172.226562 190.464844 172.332031 C 191 172.441406 191.523438 172.597656 192.027344 172.808594 C 192.535156 173.015625 193.015625 173.273438 193.46875 173.578125 C 193.925781 173.882812 194.34375 174.226562 194.730469 174.613281 C 195.117188 175 195.464844 175.421875 195.769531 175.875 C 196.070312 176.332031 196.328125 176.8125 196.539062 177.316406 C 196.746094 177.824219 196.90625 178.34375 197.011719 178.878906 C 197.121094 179.417969 197.171875 179.957031 197.171875 180.507812 L 197.171875 222.171875 C 197.171875 222.71875 197.121094 223.261719 197.011719 223.796875 C 196.90625 224.335938 196.746094 224.855469 196.539062 225.363281 C 196.328125 225.867188 196.070312 226.347656 195.769531 226.800781 C 195.464844 227.257812 195.117188 227.679688 194.730469 228.066406 C 194.34375 228.453125 193.925781 228.796875 193.46875 229.101562 C 193.015625 229.40625 192.535156 229.664062 192.027344 229.871094 C 191.523438 230.082031 191 230.238281 190.464844 230.347656 C 189.929688 230.453125 189.386719 230.507812 188.839844 230.507812 Z M 188.839844 230.507812 " fill-opacity="1" fill-rule="nonzero"/><path fill="#000000" d="M 222.171875 230.507812 C 221.625 230.507812 221.082031 230.453125 220.546875 230.347656 C 220.011719 230.238281 219.488281 230.082031 218.984375 229.871094 C 218.476562 229.664062 217.996094 229.40625 217.542969 229.101562 C 217.089844 228.796875 216.667969 228.453125 216.28125 228.066406 C 215.894531 227.679688 215.546875 227.257812 215.242188 226.800781 C 214.941406 226.347656 214.683594 225.867188 214.472656 225.363281 C 214.265625 224.855469 214.105469 224.335938 214 223.796875 C 213.894531 223.261719 213.839844 222.71875 213.839844 222.171875 L 213.839844 197.171875 C 213.839844 196.625 213.785156 196.082031 213.679688 195.546875 C 213.574219 195.011719 213.414062 194.488281 213.203125 193.984375 C 212.996094 193.476562 212.738281 192.996094 212.433594 192.542969 C 212.128906 192.085938 211.785156 191.667969 211.398438 191.28125 C 211.011719 190.894531 210.589844 190.546875 210.136719 190.242188 C 209.679688 189.941406 209.199219 189.683594 208.695312 189.472656 C 208.1875 189.265625 207.667969 189.105469 207.132812 189 C 206.59375 188.894531 206.054688 188.839844 205.507812 188.839844 C 204.957031 188.839844 204.417969 188.894531 203.878906 189 C 203.34375 189.105469 202.824219 189.265625 202.316406 189.472656 C 201.8125 189.683594 201.332031 189.941406 200.875 190.242188 C 200.421875 190.546875 200 190.894531 199.613281 191.28125 C 199.226562 191.667969 198.882812 192.085938 198.578125 192.542969 C 198.273438 192.996094 198.015625 193.476562 197.808594 193.984375 C 197.597656 194.488281 197.441406 195.011719 197.332031 195.546875 C 197.226562 196.082031 197.171875 196.625 197.171875 197.171875 C 197.171875 197.71875 197.121094 198.261719 197.011719 198.796875 C 196.90625 199.335938 196.746094 199.855469 196.539062 200.363281 C 196.328125 200.867188 196.070312 201.347656 195.769531 201.800781 C 195.464844 202.257812 195.117188 202.679688 194.730469 203.066406 C 194.34375 203.453125 193.925781 203.796875 193.46875 204.101562 C 193.015625 204.40625 192.535156 204.664062 192.027344 204.871094 C 191.523438 205.082031 191 205.238281 190.464844 205.347656 C 189.929688 205.453125 189.386719 205.507812 188.839844 205.507812 C 188.292969 205.507812 187.75 205.453125 187.214844 205.347656 C 186.675781 205.238281 186.15625 205.082031 185.648438 204.871094 C 185.144531 204.664062 184.664062 204.40625 184.210938 204.101562 C 183.753906 203.796875 183.332031 203.453125 182.945312 203.066406 C 182.558594 202.679688 182.214844 202.257812 181.910156 201.800781 C 181.605469 201.347656 181.351562 200.867188 181.140625 200.363281 C 180.929688 199.855469 180.773438 199.335938 180.667969 198.796875 C 180.558594 198.261719 180.507812 197.71875 180.507812 197.171875 C 180.507812 196.355469 180.546875 195.535156 180.625 194.722656 C 180.707031 193.90625 180.828125 193.097656 180.984375 192.296875 C 181.144531 191.492188 181.34375 190.699219 181.582031 189.914062 C 181.820312 189.132812 182.09375 188.363281 182.410156 187.605469 C 182.722656 186.847656 183.070312 186.109375 183.457031 185.386719 C 183.84375 184.664062 184.265625 183.964844 184.71875 183.285156 C 185.175781 182.601562 185.660156 181.945312 186.179688 181.3125 C 186.699219 180.679688 187.25 180.074219 187.828125 179.496094 C 188.40625 178.914062 189.011719 178.367188 189.644531 177.847656 C 190.277344 177.328125 190.9375 176.839844 191.617188 176.386719 C 192.296875 175.929688 193 175.511719 193.722656 175.125 C 194.441406 174.738281 195.183594 174.390625 195.9375 174.074219 C 196.695312 173.761719 197.464844 173.488281 198.25 173.25 C 199.03125 173.011719 199.824219 172.8125 200.628906 172.652344 C 201.433594 172.492188 202.242188 172.375 203.054688 172.292969 C 203.871094 172.210938 204.6875 172.171875 205.507812 172.171875 C 206.324219 172.171875 207.140625 172.210938 207.957031 172.292969 C 208.769531 172.375 209.582031 172.492188 210.382812 172.652344 C 211.1875 172.8125 211.980469 173.011719 212.761719 173.25 C 213.546875 173.488281 214.316406 173.761719 215.074219 174.074219 C 215.828125 174.390625 216.570312 174.738281 217.289062 175.125 C 218.011719 175.511719 218.714844 175.929688 219.394531 176.386719 C 220.074219 176.839844 220.734375 177.328125 221.367188 177.847656 C 222 178.367188 222.605469 178.914062 223.183594 179.496094 C 223.761719 180.074219 224.3125 180.679688 224.832031 181.3125 C 225.351562 181.945312 225.835938 182.601562 226.292969 183.285156 C 226.746094 183.964844 227.167969 184.664062 227.554688 185.386719 C 227.941406 186.109375 228.289062 186.847656 228.601562 187.605469 C 228.917969 188.363281 229.191406 189.132812 229.429688 189.914062 C 229.667969 190.699219 229.867188 191.492188 230.027344 192.296875 C 230.183594 193.097656 230.304688 193.90625 230.386719 194.722656 C 230.464844 195.535156 230.507812 196.355469 230.507812 197.171875 L 230.507812 222.171875 C 230.507812 222.71875 230.453125 223.261719 230.347656 223.796875 C 230.238281 224.335938 230.082031 224.855469 229.871094 225.363281 C 229.664062 225.867188 229.40625 226.347656 229.101562 226.800781 C 228.796875 227.257812 228.453125 227.679688 228.066406 228.066406 C 227.679688 228.453125 227.257812 228.796875 226.800781 229.101562 C 226.347656 229.40625 225.867188 229.664062 225.363281 229.871094 C 224.855469 230.082031 224.335938 230.238281 223.796875 230.347656 C 223.261719 230.453125 222.71875 230.507812 222.171875 230.507812 Z M 222.171875 230.507812 " fill-opacity="1" fill-rule="nonzero"/></svg>