<svg xmlns="http://www.w3.org/2000/svg" xmlns:xlink="http://www.w3.org/1999/xlink" width="500" zoomAndPan="magnify" viewBox="0 0 375 374.999991" height="500" preserveAspectRatio="xMidYMid meet" version="1.0"><defs><g/></defs><g fill="#ffffff" fill-opacity="1"><g transform="translate(133.599473, 243.66476)"><g><path d="M 67.757812 -57.453125 C 61.167969 -55.421875 54.242188 -53.226562 47.652344 -50.523438 C 51.199219 -65.054688 54.070312 -79.925781 57.621094 -94.457031 C 58.296875 -96.824219 56.945312 -98.511719 55.085938 -99.355469 C 54.242188 -100.03125 53.058594 -100.371094 51.539062 -99.695312 C 36.667969 -94.289062 22.8125 -86.175781 7.941406 -80.433594 C 2.871094 -78.40625 5.070312 -70.125 10.308594 -72.152344 C 22.980469 -77.050781 35.148438 -83.472656 47.652344 -88.878906 C 44.441406 -75.53125 41.738281 -62.015625 38.1875 -48.664062 C 38.019531 -47.820312 37.851562 -46.976562 37.679688 -46.300781 C 26.191406 -40.890625 15.375 -34.300781 6.421875 -26.023438 C 0.167969 -20.109375 -5.578125 -12.671875 -6.929688 -3.886719 C -7.941406 3.042969 -6.589844 13.6875 1.519531 16.050781 C 19.769531 21.289062 33.625 -8.617188 38.527344 -20.953125 C 40.890625 -27.035156 42.917969 -33.457031 44.777344 -39.878906 C 53.058594 -43.59375 61.507812 -46.636719 70.125 -49.171875 C 75.195312 -50.691406 72.996094 -58.972656 67.757812 -57.453125 Z M 15.882812 1.015625 C 12.84375 4.054688 6.757812 9.800781 3.210938 5.914062 C -0.339844 2.027344 1.691406 -5.238281 3.886719 -9.460938 C 7.941406 -17.066406 15.546875 -22.8125 22.472656 -27.542969 C 26.359375 -30.078125 30.246094 -32.441406 34.472656 -34.640625 C 30.414062 -21.628906 25.175781 -8.28125 15.882812 1.015625 Z M 15.882812 1.015625 "/></g></g></g><g fill="#ffffff" fill-opacity="1"><g transform="translate(177.02053, 255.387698)"><g><path d="M 73.414062 -51.546875 C 68.015625 -48.277344 62.761719 -44.871094 57.652344 -41.320312 C 58.644531 -46.148438 59.214844 -51.117188 58.929688 -55.945312 C 58.359375 -67.589844 51.117188 -81.507812 37.769531 -80.511719 C 30.8125 -79.945312 23.855469 -76.109375 18.175781 -71.140625 C 18.460938 -72.703125 18.886719 -74.265625 19.3125 -75.828125 C 20.449219 -80.371094 13.632812 -82.214844 12.496094 -77.816406 C 6.390625 -54.101562 -1.136719 -30.671875 -6.246094 -6.675781 C -7.242188 -2.273438 -0.425781 -0.285156 0.710938 -4.828125 C 5.113281 -22.578125 9.941406 -40.183594 14.625 -57.792969 C 23.144531 -69.011719 43.167969 -82.925781 50.410156 -63.472656 C 53.675781 -54.527344 51.6875 -44.019531 48.277344 -34.929688 C 42.171875 -30.671875 36.066406 -26.269531 30.246094 -21.582031 C 21.015625 -14.199219 -2.128906 2.128906 2.414062 16.753906 C 8.519531 36.351562 29.535156 12.210938 34.363281 5.394531 C 41.605469 -4.96875 49.558594 -17.324219 54.386719 -30.386719 C 61.769531 -35.5 69.4375 -40.46875 77.105469 -45.296875 C 80.9375 -47.851562 77.386719 -54.101562 73.414062 -51.546875 Z M 30.53125 -1.847656 C 27.972656 1.988281 18.460938 18.316406 11.644531 16.753906 C -0.425781 13.773438 36.636719 -17.464844 39.757812 -19.878906 C 40.46875 -20.449219 41.320312 -20.875 42.03125 -21.441406 C 38.480469 -14.769531 34.789062 -8.234375 30.53125 -1.847656 Z M 30.53125 -1.847656 "/></g></g></g></svg>