<svg xmlns="http://www.w3.org/2000/svg" xmlns:xlink="http://www.w3.org/1999/xlink" width="500" zoomAndPan="magnify" viewBox="0 0 375 374.999991" height="500" preserveAspectRatio="xMidYMid meet" version="1.0"><defs><g/><clipPath id="c6f585f8bb"><path d="M 62.945312 62.945312 L 314.730469 62.945312 L 314.730469 314.730469 L 62.945312 314.730469 Z M 62.945312 62.945312 " clip-rule="nonzero"/></clipPath><clipPath id="e3f9f6bd56"><path d="M 188.839844 62.945312 C 119.3125 62.945312 62.945312 119.3125 62.945312 188.839844 C 62.945312 258.367188 119.3125 314.730469 188.839844 314.730469 C 258.367188 314.730469 314.730469 258.367188 314.730469 188.839844 C 314.730469 119.3125 258.367188 62.945312 188.839844 62.945312 " clip-rule="nonzero"/></clipPath></defs><g clip-path="url(#c6f585f8bb)"><g clip-path="url(#e3f9f6bd56)"><path fill="#000000" d="M 62.945312 62.945312 L 314.730469 62.945312 L 314.730469 314.730469 L 62.945312 314.730469 Z M 62.945312 62.945312 " fill-opacity="1" fill-rule="nonzero"/></g></g><g fill="#ffffff" fill-opacity="1"><g transform="translate(90.098772, 200.196433)"><g><path d="M 10.753906 -21.421875 L 5.269531 -21.421875 L 0.429688 -18.425781 L 2.015625 -13.582031 L 3.769531 -14.394531 L 3.769531 0 L 10.753906 0 Z M 10.753906 -21.421875 "/></g></g></g><g fill="#ffffff" fill-opacity="1"><g transform="translate(102.222608, 200.196433)"><g><path d="M 5.226562 -6.296875 C 6.683594 -5.226562 8.441406 -4.671875 10.070312 -4.671875 C 12.167969 -4.671875 13.324219 -5.011719 13.324219 -5.570312 C 13.324219 -7.457031 0.769531 -4.113281 0.769531 -11.910156 C 0.769531 -15.46875 4.027344 -17.480469 9.855469 -17.480469 C 13.324219 -17.480469 16.539062 -16.28125 18.765625 -14.183594 L 14.953125 -10.839844 C 13.453125 -11.953125 11.695312 -12.554688 10.070312 -12.554688 C 8.011719 -12.554688 6.855469 -12.167969 6.855469 -11.570312 C 6.855469 -9.941406 19.410156 -13.066406 19.410156 -5.269531 C 19.410156 -1.671875 16.109375 0.34375 10.28125 0.300781 C 7.199219 0.300781 3.984375 -0.898438 1.414062 -2.957031 Z M 5.226562 -6.296875 "/></g></g></g><g fill="#ffffff" fill-opacity="1"><g transform="translate(122.357604, 200.196433)"><g><path d="M 17.824219 -5.140625 C 17.609375 -1.671875 14.566406 0.34375 9.382812 0.34375 C 4.285156 0.34375 1.414062 -2.3125 1.414062 -7.070312 L 1.414062 -20.78125 L 8.355469 -20.78125 L 8.355469 -15.894531 L 11.867188 -15.894531 L 11.867188 -10.753906 L 8.355469 -10.753906 L 8.355469 -8.355469 C 8.355469 -6.382812 9.210938 -5.269531 10.667969 -5.269531 C 11.867188 -5.269531 12.597656 -6 12.683594 -7.242188 Z M 17.824219 -5.140625 "/></g></g></g><g fill="#ffffff" fill-opacity="1"><g transform="translate(140.821822, 200.196433)"><g/></g></g><g fill="#ffffff" fill-opacity="1"><g transform="translate(146.605276, 200.196433)"><g><path d="M 29.863281 -21.421875 L 23.566406 -21.421875 L 20.609375 -9.082031 L 17.652344 -21.421875 L 12.597656 -21.421875 L 9.683594 -9.082031 L 6.726562 -21.421875 L 0.386719 -21.421875 L 6.726562 0 L 12.46875 0 L 15.167969 -10.496094 L 17.824219 0 L 23.523438 0 Z M 29.863281 -21.421875 "/></g></g></g><g fill="#ffffff" fill-opacity="1"><g transform="translate(176.850613, 200.196433)"><g><path d="M 19.667969 -8.570312 C 19.667969 -14.269531 16.28125 -17.480469 10.324219 -17.480469 C 4.371094 -17.480469 1.027344 -14.269531 1.027344 -8.570312 C 1.027344 -2.914062 4.371094 0.34375 10.324219 0.34375 C 14.609375 0.34375 17.738281 -1.542969 19.023438 -4.882812 L 12.125 -6.042969 C 11.824219 -5.269531 11.226562 -4.839844 10.410156 -4.839844 C 9.339844 -4.839844 8.613281 -5.441406 8.183594 -6.597656 L 19.410156 -6.597656 C 19.539062 -7.242188 19.667969 -7.925781 19.667969 -8.570312 Z M 12.511719 -10.15625 L 8.011719 -10.15625 C 8.355469 -11.570312 9.125 -12.339844 10.324219 -12.339844 C 11.183594 -12.339844 11.953125 -11.570312 12.511719 -10.15625 Z M 12.511719 -10.15625 "/></g></g></g><g fill="#ffffff" fill-opacity="1"><g transform="translate(197.499689, 200.196433)"><g><path d="M 12.726562 -17.480469 C 10.839844 -17.480469 9.382812 -16.539062 8.355469 -14.78125 L 8.355469 -21.421875 L 1.414062 -21.421875 L 1.414062 0 L 8.355469 0 L 8.355469 -2.398438 C 9.382812 -0.644531 10.839844 0.34375 12.726562 0.34375 C 17.394531 0.34375 20.050781 -2.914062 20.050781 -8.570312 C 20.050781 -14.269531 17.394531 -17.480469 12.726562 -17.480469 Z M 10.710938 -5.269531 C 9.210938 -5.269531 8.355469 -6.46875 8.355469 -8.570312 C 8.355469 -10.710938 9.210938 -11.910156 10.710938 -11.910156 C 12.296875 -11.910156 13.195312 -10.710938 13.195312 -8.570312 C 13.195312 -6.46875 12.296875 -5.269531 10.710938 -5.269531 Z M 10.710938 -5.269531 "/></g></g></g><g fill="#ffffff" fill-opacity="1"><g transform="translate(218.534329, 200.196433)"><g><path d="M 5.226562 -6.296875 C 6.683594 -5.226562 8.441406 -4.671875 10.070312 -4.671875 C 12.167969 -4.671875 13.324219 -5.011719 13.324219 -5.570312 C 13.324219 -7.457031 0.769531 -4.113281 0.769531 -11.910156 C 0.769531 -15.46875 4.027344 -17.480469 9.855469 -17.480469 C 13.324219 -17.480469 16.539062 -16.28125 18.765625 -14.183594 L 14.953125 -10.839844 C 13.453125 -11.953125 11.695312 -12.554688 10.070312 -12.554688 C 8.011719 -12.554688 6.855469 -12.167969 6.855469 -11.570312 C 6.855469 -9.941406 19.410156 -13.066406 19.410156 -5.269531 C 19.410156 -1.671875 16.109375 0.34375 10.28125 0.300781 C 7.199219 0.300781 3.984375 -0.898438 1.414062 -2.957031 Z M 5.226562 -6.296875 "/></g></g></g><g fill="#ffffff" fill-opacity="1"><g transform="translate(238.669326, 200.196433)"><g><path d="M 4.882812 -18.296875 C 7.113281 -18.296875 8.398438 -19.324219 8.398438 -21.082031 C 8.398438 -22.835938 7.113281 -23.867188 4.882812 -23.867188 C 2.65625 -23.867188 1.414062 -22.835938 1.414062 -21.082031 C 1.414062 -19.324219 2.65625 -18.296875 4.882812 -18.296875 Z M 8.398438 -17.136719 L 1.414062 -17.136719 L 1.414062 0 L 8.398438 0 Z M 8.398438 -17.136719 "/></g></g></g><g fill="#ffffff" fill-opacity="1"><g transform="translate(248.436937, 200.196433)"><g><path d="M 17.824219 -5.140625 C 17.609375 -1.671875 14.566406 0.34375 9.382812 0.34375 C 4.285156 0.34375 1.414062 -2.3125 1.414062 -7.070312 L 1.414062 -20.78125 L 8.355469 -20.78125 L 8.355469 -15.894531 L 11.867188 -15.894531 L 11.867188 -10.753906 L 8.355469 -10.753906 L 8.355469 -8.355469 C 8.355469 -6.382812 9.210938 -5.269531 10.667969 -5.269531 C 11.867188 -5.269531 12.597656 -6 12.683594 -7.242188 Z M 17.824219 -5.140625 "/></g></g></g><g fill="#ffffff" fill-opacity="1"><g transform="translate(266.901155, 200.196433)"><g><path d="M 19.667969 -8.570312 C 19.667969 -14.269531 16.28125 -17.480469 10.324219 -17.480469 C 4.371094 -17.480469 1.027344 -14.269531 1.027344 -8.570312 C 1.027344 -2.914062 4.371094 0.34375 10.324219 0.34375 C 14.609375 0.34375 17.738281 -1.542969 19.023438 -4.882812 L 12.125 -6.042969 C 11.824219 -5.269531 11.226562 -4.839844 10.410156 -4.839844 C 9.339844 -4.839844 8.613281 -5.441406 8.183594 -6.597656 L 19.410156 -6.597656 C 19.539062 -7.242188 19.667969 -7.925781 19.667969 -8.570312 Z M 12.511719 -10.15625 L 8.011719 -10.15625 C 8.355469 -11.570312 9.125 -12.339844 10.324219 -12.339844 C 11.183594 -12.339844 11.953125 -11.570312 12.511719 -10.15625 Z M 12.511719 -10.15625 "/></g></g></g></svg>