<svg xmlns="http://www.w3.org/2000/svg" xmlns:xlink="http://www.w3.org/1999/xlink" width="500" zoomAndPan="magnify" viewBox="0 0 375 374.999991" height="500" preserveAspectRatio="xMidYMid meet" version="1.0"><defs><g/><clipPath id="3ec18834ed"><path d="M 62.945312 62.945312 L 314.730469 62.945312 L 314.730469 314.730469 L 62.945312 314.730469 Z M 62.945312 62.945312 " clip-rule="nonzero"/></clipPath><clipPath id="1942d58d99"><path d="M 188.839844 62.945312 C 119.3125 62.945312 62.945312 119.3125 62.945312 188.839844 C 62.945312 258.367188 119.3125 314.730469 188.839844 314.730469 C 258.367188 314.730469 314.730469 258.367188 314.730469 188.839844 C 314.730469 119.3125 258.367188 62.945312 188.839844 62.945312 " clip-rule="nonzero"/></clipPath></defs><g clip-path="url(#3ec18834ed)"><g clip-path="url(#1942d58d99)"><path fill="#000000" d="M 62.945312 62.945312 L 314.730469 62.945312 L 314.730469 314.730469 L 62.945312 314.730469 Z M 62.945312 62.945312 " fill-opacity="1" fill-rule="nonzero"/></g></g><g fill="#ffffff" fill-opacity="1"><g transform="translate(106.001115, 179.946435)"><g><path d="M 20.050781 -21.421875 L 13.066406 -21.421875 L 13.066406 -13.710938 L 8.355469 -13.710938 L 8.355469 -21.421875 L 1.414062 -21.421875 L 1.414062 0 L 8.355469 0 L 8.355469 -7.710938 L 13.066406 -7.710938 L 13.066406 0 L 20.050781 0 Z M 20.050781 -21.421875 "/></g></g></g><g fill="#ffffff" fill-opacity="1"><g transform="translate(127.421328, 179.946435)"><g><path d="M 19.667969 -8.570312 C 19.667969 -14.269531 16.28125 -17.480469 10.324219 -17.480469 C 4.371094 -17.480469 1.027344 -14.269531 1.027344 -8.570312 C 1.027344 -2.914062 4.371094 0.34375 10.324219 0.34375 C 14.609375 0.34375 17.738281 -1.542969 19.023438 -4.882812 L 12.125 -6.042969 C 11.824219 -5.269531 11.226562 -4.839844 10.410156 -4.839844 C 9.339844 -4.839844 8.613281 -5.441406 8.183594 -6.597656 L 19.410156 -6.597656 C 19.539062 -7.242188 19.667969 -7.925781 19.667969 -8.570312 Z M 12.511719 -10.15625 L 8.011719 -10.15625 C 8.355469 -11.570312 9.125 -12.339844 10.324219 -12.339844 C 11.183594 -12.339844 11.953125 -11.570312 12.511719 -10.15625 Z M 12.511719 -10.15625 "/></g></g></g><g fill="#ffffff" fill-opacity="1"><g transform="translate(148.070405, 179.946435)"><g><path d="M 14.226562 -8.484375 L 20.523438 -17.136719 L 13.324219 -17.136719 L 10.539062 -13.410156 L 7.796875 -17.136719 L 0.601562 -17.136719 L 6.898438 -8.484375 L 0.601562 0 L 8.011719 0 L 10.539062 -3.46875 L 13.066406 0 L 20.523438 0 Z M 14.226562 -8.484375 "/></g></g></g><g fill="#ffffff" fill-opacity="1"><g transform="translate(169.147891, 179.946435)"><g/></g></g><g fill="#ffffff" fill-opacity="1"><g transform="translate(174.931346, 179.946435)"><g><path d="M 7.582031 -21.421875 L 12.039062 -9.339844 L 16.582031 -21.421875 L 23.738281 -21.421875 L 15.46875 0 L 8.613281 0 L 0.386719 -21.421875 Z M 7.582031 -21.421875 "/></g></g></g><g fill="#ffffff" fill-opacity="1"><g transform="translate(199.050501, 179.946435)"><g><path d="M 19.667969 -17.136719 L 12.683594 -17.136719 L 12.683594 -14.78125 C 11.695312 -16.539062 10.199219 -17.480469 8.3125 -17.480469 C 3.640625 -17.480469 1.027344 -14.269531 1.027344 -8.570312 C 1.027344 -2.914062 3.640625 0.34375 8.3125 0.34375 C 10.199219 0.34375 11.695312 -0.644531 12.683594 -2.398438 L 12.683594 0 L 19.667969 0 Z M 10.324219 -5.269531 C 8.742188 -5.269531 7.882812 -6.46875 7.882812 -8.570312 C 7.882812 -10.710938 8.742188 -11.910156 10.324219 -11.910156 C 11.867188 -11.910156 12.683594 -10.710938 12.683594 -8.570312 C 12.683594 -6.46875 11.867188 -5.269531 10.324219 -5.269531 Z M 10.324219 -5.269531 "/></g></g></g><g fill="#ffffff" fill-opacity="1"><g transform="translate(220.08514, 179.946435)"><g><path d="M 8.398438 -21.421875 L 1.414062 -21.421875 L 1.414062 0 L 8.398438 0 Z M 8.398438 -21.421875 "/></g></g></g><g fill="#ffffff" fill-opacity="1"><g transform="translate(229.852752, 179.946435)"><g><path d="M 19.796875 -17.136719 L 12.8125 -17.136719 L 12.8125 -8.65625 C 12.382812 -6.597656 11.527344 -5.484375 10.324219 -5.484375 C 8.910156 -5.484375 8.097656 -7.070312 8.097656 -9.855469 L 8.097656 -17.136719 L 1.15625 -17.136719 L 1.15625 -7.457031 C 1.15625 -2.484375 3.554688 0.34375 7.796875 0.34375 C 10.113281 0.300781 11.824219 -0.769531 12.8125 -2.742188 L 12.8125 0 L 19.796875 0 Z M 19.796875 -17.136719 "/></g></g></g><g fill="#ffffff" fill-opacity="1"><g transform="translate(251.015921, 179.946435)"><g><path d="M 19.667969 -8.570312 C 19.667969 -14.269531 16.28125 -17.480469 10.324219 -17.480469 C 4.371094 -17.480469 1.027344 -14.269531 1.027344 -8.570312 C 1.027344 -2.914062 4.371094 0.34375 10.324219 0.34375 C 14.609375 0.34375 17.738281 -1.542969 19.023438 -4.882812 L 12.125 -6.042969 C 11.824219 -5.269531 11.226562 -4.839844 10.410156 -4.839844 C 9.339844 -4.839844 8.613281 -5.441406 8.183594 -6.597656 L 19.410156 -6.597656 C 19.539062 -7.242188 19.667969 -7.925781 19.667969 -8.570312 Z M 12.511719 -10.15625 L 8.011719 -10.15625 C 8.355469 -11.570312 9.125 -12.339844 10.324219 -12.339844 C 11.183594 -12.339844 11.953125 -11.570312 12.511719 -10.15625 Z M 12.511719 -10.15625 "/></g></g></g><g fill="#ffffff" fill-opacity="1"><g transform="translate(136.505019, 221.196432)"><g><path d="M 17.609375 -9.253906 C 19.195312 -10.367188 20.050781 -12.167969 20.050781 -14.566406 C 20.050781 -18.9375 17.394531 -21.421875 12.726562 -21.421875 L 1.414062 -21.421875 L 1.414062 0 L 8.355469 0 L 8.355469 -7.710938 L 10.925781 -7.710938 C 12.640625 -7.414062 13.582031 -6.253906 13.582031 -4.414062 L 13.582031 0 L 19.921875 0 L 19.921875 -3.511719 C 19.921875 -6.085938 19.109375 -8.054688 17.609375 -9.253906 Z M 11.78125 -12.855469 L 8.355469 -12.855469 L 8.355469 -16.066406 L 11.78125 -16.066406 C 13.066406 -16.066406 13.839844 -15.511719 13.839844 -14.4375 C 13.839844 -13.453125 13.066406 -12.855469 11.78125 -12.855469 Z M 11.78125 -12.855469 "/></g></g></g><g fill="#ffffff" fill-opacity="1"><g transform="translate(157.711022, 221.196432)"><g><path d="M 19.667969 -8.570312 C 19.667969 -14.269531 16.28125 -17.480469 10.324219 -17.480469 C 4.371094 -17.480469 1.027344 -14.269531 1.027344 -8.570312 C 1.027344 -2.914062 4.371094 0.34375 10.324219 0.34375 C 14.609375 0.34375 17.738281 -1.542969 19.023438 -4.882812 L 12.125 -6.042969 C 11.824219 -5.269531 11.226562 -4.839844 10.410156 -4.839844 C 9.339844 -4.839844 8.613281 -5.441406 8.183594 -6.597656 L 19.410156 -6.597656 C 19.539062 -7.242188 19.667969 -7.925781 19.667969 -8.570312 Z M 12.511719 -10.15625 L 8.011719 -10.15625 C 8.355469 -11.570312 9.125 -12.339844 10.324219 -12.339844 C 11.183594 -12.339844 11.953125 -11.570312 12.511719 -10.15625 Z M 12.511719 -10.15625 "/></g></g></g><g fill="#ffffff" fill-opacity="1"><g transform="translate(178.360099, 221.196432)"><g><path d="M 19.667969 -17.136719 L 12.726562 -17.136719 L 12.726562 -14.78125 C 11.695312 -16.539062 10.242188 -17.480469 8.355469 -17.480469 C 3.683594 -17.480469 1.027344 -14.269531 1.027344 -8.570312 C 1.027344 -2.914062 3.683594 0.34375 8.355469 0.34375 C 10.242188 0.34375 11.695312 -0.644531 12.726562 -2.398438 L 12.726562 -0.386719 C 12.726562 1.371094 11.867188 2.355469 10.367188 2.355469 C 8.527344 2.355469 7.457031 1.714844 7.414062 0.472656 L 1.15625 0.769531 C 1.285156 4.839844 4.757812 7.15625 10.710938 7.15625 C 16.453125 7.15625 19.667969 4.457031 19.667969 -0.386719 Z M 10.367188 -5.269531 C 8.785156 -5.269531 7.882812 -6.46875 7.882812 -8.570312 C 7.882812 -10.710938 8.785156 -11.910156 10.367188 -11.910156 C 11.867188 -11.910156 12.726562 -10.710938 12.726562 -8.570312 C 12.726562 -6.46875 11.867188 -5.269531 10.367188 -5.269531 Z M 10.367188 -5.269531 "/></g></g></g><g fill="#ffffff" fill-opacity="1"><g transform="translate(199.437585, 221.196432)"><g><path d="M 19.667969 -8.570312 C 19.667969 -14.269531 16.28125 -17.480469 10.324219 -17.480469 C 4.371094 -17.480469 1.027344 -14.269531 1.027344 -8.570312 C 1.027344 -2.914062 4.371094 0.34375 10.324219 0.34375 C 14.609375 0.34375 17.738281 -1.542969 19.023438 -4.882812 L 12.125 -6.042969 C 11.824219 -5.269531 11.226562 -4.839844 10.410156 -4.839844 C 9.339844 -4.839844 8.613281 -5.441406 8.183594 -6.597656 L 19.410156 -6.597656 C 19.539062 -7.242188 19.667969 -7.925781 19.667969 -8.570312 Z M 12.511719 -10.15625 L 8.011719 -10.15625 C 8.355469 -11.570312 9.125 -12.339844 10.324219 -12.339844 C 11.183594 -12.339844 11.953125 -11.570312 12.511719 -10.15625 Z M 12.511719 -10.15625 "/></g></g></g><g fill="#ffffff" fill-opacity="1"><g transform="translate(220.086662, 221.196432)"><g><path d="M 14.226562 -8.484375 L 20.523438 -17.136719 L 13.324219 -17.136719 L 10.539062 -13.410156 L 7.796875 -17.136719 L 0.601562 -17.136719 L 6.898438 -8.484375 L 0.601562 0 L 8.011719 0 L 10.539062 -3.46875 L 13.066406 0 L 20.523438 0 Z M 14.226562 -8.484375 "/></g></g></g></svg>